<svg xmlns="http://www.w3.org/2000/svg" xmlns:xlink="http://www.w3.org/1999/xlink" viewBox="0 0 545 614"><defs><style>.cls-1,.cls-17,.cls-18,.cls-23,.cls-30{fill:none;}.cls-2{clip-path:url(#clip-path);}.cls-3,.cls-4{fill:#ecedff;}.cls-3{opacity:0.66;}.cls-31,.cls-5{fill:#9299ef;}.cls-6{fill:#090d1e;}.cls-7{fill:#e88a74;}.cls-8{fill:#f4a08c;}.cls-9{fill:#9ba2f9;}.cls-10{fill:#090d1c;}.cls-11{fill:#a1abf7;}.cls-12,.cls-27{fill:#fff;}.cls-13{fill:#323775;}.cls-14{fill:#1c224f;}.cls-15{fill:#101530;}.cls-16{fill:#40438a;}.cls-17,.cls-18{stroke:#101530;}.cls-17,.cls-18,.cls-23,.cls-30{stroke-miterlimit:10;}.cls-18{stroke-dasharray:0.99 3.96;}.cls-19{fill:#c5cdff;}.cls-20{fill:#fcb39d;}.cls-21{fill:#cecece;}.cls-22{fill:#dedede;}.cls-23{stroke:#c0c2ff;}.cls-23,.cls-30{stroke-width:0.5px;}.cls-24{fill:#e89380;}.cls-25{fill:#3f0c25;}.cls-26{fill:#e55a81;}.cls-27{opacity:0.5;}.cls-28{fill:#c0c2ff;}.cls-29{fill:#dcdfff;}.cls-30{stroke:#fff;}.cls-31{font-size:36.41px;font-family:Montserrat-Black, Montserrat Black;font-weight:800;}.cls-32{letter-spacing:0em;}.cls-33{letter-spacing:0em;}</style><clipPath id="clip-path" transform="translate(12 79)"><rect class="cls-1" width="500" height="500"/></clipPath></defs><g id="BACKGROUND"><g class="cls-2"><path class="cls-3" d="M292-79S267.57-9.15,300.74,36.25s117,1.75,120.5,89.07S461.4,273.75,533,258V-79Z" transform="translate(12 79)"/><path class="cls-4" d="M297,506s-6-53,53.45-50.33C424.4,459,429,428.57,430.1,392.06S455,331.78,502,346.16h0V506Z" transform="translate(12 79)"/><path class="cls-4" d="M-12,119s40,14,66-5,1-67,51-69,85-23,76-64H-12Z" transform="translate(12 79)"/><circle class="cls-5" cx="62.5" cy="286.5" r="11.5"/><circle class="cls-5" cx="474.5" cy="433.5" r="20.5"/><circle class="cls-5" cx="399" cy="75" r="45"/><circle class="cls-5" cx="45" cy="569" r="45"/></g></g><g id="OBJECTS"><ellipse class="cls-4" cx="248.89" cy="480.01" rx="171.15" ry="8.78"/><rect class="cls-6" x="361.63" y="324.3" width="1.51" height="154.8"/><rect class="cls-6" x="349.94" y="365.57" width="1.51" height="69.37" transform="translate(762.94 128.56) rotate(90)"/><path class="cls-7" d="M261.78,209s-12.11-1.21-16.35.61c-8.52,3.65-7.88,9.69-7.27,12.12s3.63,2.42,4.84-.61,6.39-1.23,8.48-.61c6.06,1.82,7.69-.18,13.54,2.33S261.78,209,261.78,209Z" transform="translate(12 79)"/><path class="cls-7" d="M254.92,209s37.26-.83,48.06-15.75c15.35-21.2,17.15-25.94,27.27-27.26s6.4,17,.53,28.66-17.2,25.56-30.47,29.6-36.11,2.07-45.19-2.73Z" transform="translate(12 79)"/><path class="cls-8" d="M264.24,211s-9.12-1.47-11.54-.26.6,3.64.6,3.64Z" transform="translate(12 79)"/><path class="cls-9" d="M312.13,127.54s-2.26-4.31,1.26-6.89,5.95-2,5.95-2l-1.71,2a3.31,3.31,0,0,0-.71,4.7Z" transform="translate(12 79)"/><path class="cls-10" d="M327.13,165.87s-8.4.67-24.15,27.33h0a36.36,36.36,0,0,1,10,10.51l2.14,3.43,7.27-23Z" transform="translate(12 79)"/><path class="cls-11" d="M377.5,195c-8.21-12-19.71-13.68-28.63-2.18a27.16,27.16,0,0,0-2.87,4.6c-9.09,18.18-4.24,40-24.84,46.65S290.26,252,286,263.48s1.21,23,1.21,23-6.06,4.24-3,9.7,26.66,12.72,64.22,9.08,42.41-24.23,44.83-38.17C395.37,255,395.21,220.92,377.5,195Z" transform="translate(12 79)"/><polygon class="cls-12" points="315.13 446.33 318.87 461.68 333.8 458.38 329.17 441.34 315.13 446.33"/><path class="cls-13" d="M283,302.23c6.5,30.51,18.36,67.32,18.36,67.32s8.73,6,19.36-1.24c0,0-7.11-65.45-8.48-78.67A142.19,142.19,0,0,1,283,302.23Z" transform="translate(12 79)"/><path class="cls-14" d="M326.85,387.67a1.79,1.79,0,0,0,.3-1.33c-.37-2.21-1.74-9.21-4.67-12.07-3.49-3.41-4,5.31-12.75,4.77s-7.31,6.63-13.5,8.77-16.5,2.69-14.83,8.51c.83,2.92,8.17,3.79,18.55,2.27,3.41-.51,8.86-3.26,12.12-4.25,3.48-1,7.1-.52,9.73-2.14A16.27,16.27,0,0,0,326.85,387.67Z" transform="translate(12 79)"/><path class="cls-15" d="M281.22,395s8.43,3.59,16.92,1.16,10.9-6.06,16.35-5.45,12-7.46,12-7.46l.65,2.63s.71.75-.83,2.49a16.43,16.43,0,0,1-4.85,4,14.12,14.12,0,0,1-5.85,1.3,24.68,24.68,0,0,0-7.92,2.66c-5.34,2.86-13.83,3.47-13.83,3.47s-6.3.48-10.67-1.15a2.77,2.77,0,0,1-1.71-2.08Z" transform="translate(12 79)"/><polygon class="cls-14" points="306.45 390.5 328.21 449.66 332.55 447.29 325.01 374.85 310.13 385.5 306.45 390.5"/><polygon class="cls-12" points="250.16 440.02 241.67 453.35 254.4 461.83 263.49 446.69 250.16 440.02"/><path class="cls-14" d="M376.68,227.92l-36.86,5s-30.65,12.15-47.9,27.66c-3.92,3.53-8.63,10.14-13.56,18.26a4.4,4.4,0,0,0,2.15,6.36,128.19,128.19,0,0,0,29.23,8.05c14.2-6.8,50.39-19,59.3-25.18C379.79,260.58,381.91,246,376.68,227.92Z" transform="translate(12 79)"/><path class="cls-16" d="M335.09,243.49s-30.9,11.51-48.47,26.65-51.49,89.67-51.49,89.67,2.42,10.3,15.14,12.12c0,0,44.23-60.59,47.87-65.43s54.58-19.92,65.43-27.27c18.78-12.72,18.17-30.9,13.33-49.07Z" transform="translate(12 79)"/><path class="cls-14" d="M238.16,391.92s6.66-6.66,7.27-11.51-6.67,0-11.52-7.27-9.69-1.82-15.14-5.45S206.65,356.18,203,361,224.22,393.74,238.16,391.92Z" transform="translate(12 79)"/><path class="cls-15" d="M204.22,359.92s-.6,4.74,8.49,13.83c17.16,17.16,26.22,16.49,27.18,16.37,0,0,0,0,0,.05l-1.75,1.75s-7.88,1.82-20.6-9.69c-8.55-7.74-10-7.75-14.76-18.49a3,3,0,0,1,.28-3A2.61,2.61,0,0,1,204.22,359.92Z" transform="translate(12 79)"/><path class="cls-15" d="M229.17,369.34s2.32,1.38,1.72,3.19-.61,3,1.81,3a7.67,7.67,0,0,1,5.46,2.43c1.21,1.21,7.27,1.81,7.27,1.81s.44-1.81-3.72-2.12a11.23,11.23,0,0,1-6.9-3.36S232.3,369.77,229.17,369.34Z" transform="translate(12 79)"/><path class="cls-12" d="M216.29,365.85a40.17,40.17,0,0,0-1.16,4.26c0,.61,1.82,1.82,2.43,1.82s1.51-4.05,1.51-4.05Z" transform="translate(12 79)"/><path class="cls-12" d="M220.38,368.52s-1,3.41-.4,4,3,1.22,3.64.61.44-4,.44-4A26.53,26.53,0,0,1,220.38,368.52Z" transform="translate(12 79)"/><path class="cls-12" d="M292.43,388.89s1.46,3,2.68,3,3.63-.6,3.63-1.21-2.42-3-2.42-3Z" transform="translate(12 79)"/><path class="cls-12" d="M298.34,386.72s2.82,2.78,3.43,2.78,3-1.82,3-2.43-4.12-2.79-4.12-2.79Z" transform="translate(12 79)"/><path class="cls-15" d="M304.8,379.89s1.82,3.55,4.85,2.94,4.24-3,7.27-3.63,3-5.33,3-5.33-3,4.12-6,4.72S307.83,378.17,304.8,379.89Z" transform="translate(12 79)"/><path class="cls-15" d="M355.85,249.21a24.87,24.87,0,0,0,20.85-27.08,75.3,75.3,0,0,0-3.24-15.19c-6.29-19.64-21.22-39.29-35.36-42.43s-25.93,13.36-24.35,23.57,3.14,44.78-3.15,52.64C306.17,246.26,334.59,252.59,355.85,249.21Z" transform="translate(12 79)"/><path class="cls-17" d="M242.66,369.34l.24-.43" transform="translate(12 79)"/><path class="cls-18" d="M244.87,365.47c7.73-13.55,33.64-58.59,42.36-69.88,10.3-13.33,58.16-29.69,58.16-29.69s13.25-7.95,11.5-19.39" transform="translate(12 79)"/><path class="cls-17" d="M356.45,244.57l-.15-.48" transform="translate(12 79)"/><path class="cls-19" d="M334.75,308a23,23,0,0,1-20.84-20.13,25.53,25.53,0,0,1,3.61-16.53c10.3-17,38.78-8.49,53.92-17,14.79-8.28,21.49-48.3-5.8-68.24a.33.33,0,0,1,.32-.57c5.62,2.26,17.6,5.8,24.87,24.58,8,20.57,18.78,72.1-15.15,89.67A74,74,0,0,1,334.75,308Z" transform="translate(12 79)"/><path class="cls-13" d="M281.22,276s6,.86,1.16,9.34-11.82,14.11-12.87,8C269.51,293.26,275.81,281.76,281.22,276Z" transform="translate(12 79)"/><path class="cls-20" d="M272.69,211.38s33.64,2.15,43.62-13.33,12.37-23.41,22.49-24.73,15.62,12.05,9.75,23.71-17.2,25.56-30.47,29.6-36.11,2.06-45.19-2.73Z" transform="translate(12 79)"/><path class="cls-10" d="M315.71,198.91s14.91,6.65,15.33,20.46c0,0,18.59-12.84,21.62-28s-9.09-23-17-19.38S315.71,198.91,315.71,198.91Z" transform="translate(12 79)"/><path class="cls-21" d="M288.44,246.52H95.17a7.28,7.28,0,0,1-7.27-7.27h0A7.27,7.27,0,0,1,95.17,232H288.44a7.26,7.26,0,0,1,7.27,7.27h0A7.27,7.27,0,0,1,288.44,246.52Z" transform="translate(12 79)"/><rect class="cls-22" x="95.66" y="310.98" width="216.29" height="7.27"/><path class="cls-23" d="M252.09,135s-9.53-7.84-19.61-3.62S218.77,149.58,202.41,152s-30.9,2.85-40.29,9.61-3.77,22.2-1.43,26.29,3.72,42.86-17.87,44.08" transform="translate(12 79)"/><rect class="cls-6" x="160.69" y="167.59" width="4.74" height="65.87" transform="translate(-49.55 151.66) rotate(-21.23)"/><rect class="cls-6" x="201.26" y="89.04" width="2.36" height="113.11" transform="translate(268.44 -18.85) rotate(66.78)"/><rect class="cls-6" x="202.47" y="92.07" width="2.36" height="113.11" transform="translate(271.96 -18.12) rotate(66.78)"/><rect class="cls-15" x="181.09" y="307.95" width="11.51" height="20.6" rx="2.67"/><path class="cls-22" d="M177,238.64a2.42,2.42,0,1,1-2.42-2.42A2.42,2.42,0,0,1,177,238.64Z" transform="translate(12 79)"/><circle class="cls-15" cx="162.91" cy="248.57" r="4.85"/><circle class="cls-22" cx="162.91" cy="248.57" r="3.03"/><path class="cls-15" d="M258.15,125.35a4.85,4.85,0,1,1-4.85-4.85A4.85,4.85,0,0,1,258.15,125.35Z" transform="translate(12 79)"/><path class="cls-22" d="M256.33,125.35a3,3,0,1,1-3-3A3,3,0,0,1,256.33,125.35Z" transform="translate(12 79)"/><rect class="cls-15" x="264.09" y="208.59" width="3.03" height="6.06"/><path class="cls-6" d="M253.91,161.7h0a6.63,6.63,0,0,1-6.63-6.64v-14a6.63,6.63,0,0,1,6.63-6.63h0a6.63,6.63,0,0,1,6.63,6.63v14A6.63,6.63,0,0,1,253.91,161.7Z" transform="translate(12 79)"/><path class="cls-15" d="M260.54,144H247.28v-2.95a6.63,6.63,0,0,1,6.63-6.63h0a6.63,6.63,0,0,1,6.63,6.63Z" transform="translate(12 79)"/><rect class="cls-15" x="259.28" y="225.22" width="13.26" height="0.74"/><rect class="cls-15" x="259.28" y="228.17" width="13.26" height="0.74"/><rect class="cls-6" x="115.66" y="324.3" width="1.51" height="154.8"/><rect class="cls-6" x="293.17" y="324.3" width="1.51" height="154.8"/><path class="cls-20" d="M310.86,128.37s-12.72,10.3-18.18,20.6.61,26.66,10.91,27.27,12-.06,21.81-14.54C341.76,137.46,332.06,113.83,310.86,128.37Z" transform="translate(12 79)"/><path class="cls-20" d="M329.59,148.63l6.71,17.91s-7.46,7.3-12.72,7.27S321.66,149.49,329.59,148.63Z" transform="translate(12 79)"/><path class="cls-20" d="M327.82,141.7s1.82-4.24,5.45-4.24,3,5.45,1.22,7.88,1.21,6.66-.61,8.48-4.82,1.11-5.44-4.6S327.82,141.7,327.82,141.7Z" transform="translate(12 79)"/><path class="cls-24" d="M332.67,143.52s1.82-2.42,0-3.63S329,141.7,329,144.73s1.22,5.46,2.43,5.46,0-4.25,0-4.25Z" transform="translate(12 79)"/><path d="M326.77,144.36h0a2.47,2.47,0,0,1-.67,1.69,23.5,23.5,0,0,1-12.92,7c-5.9.9-19.07-.53-15-12,0,0-12.15,7.43-7.62,24.27s29.9,16.58,36.31,5.38c5.08-8.88,4-21.29,3.26-25.65a.75.75,0,0,0-.51-.59C326.9,143.6,326.62,143.56,326.77,144.36Z" transform="translate(12 79)"/><path class="cls-25" d="M298.41,153a7.62,7.62,0,0,0,8,2.92c5.43-1.15,7.17,3.56,4.09,6.82s-11,3.52-15.39-2.47S295.9,149.52,298.41,153Z" transform="translate(12 79)"/><path d="M297.39,145.29s1.35,4.29,9.23,4.29,9.09,4.85,9.09,4.85l-10.91-.61-7.27-3-1.21-3Z" transform="translate(12 79)"/><path class="cls-26" d="M312.07,137.46s-11.51,5.45-12.72,8.48,4.84,4.25,7.87,1.82S312.07,137.46,312.07,137.46Z" transform="translate(12 79)"/><path class="cls-27" d="M305.41,142.31s-4.25,1.21-4.25,2.42S308.43,142.31,305.41,142.31Z" transform="translate(12 79)"/><path d="M314.4,143.32c-.44.9-1.17,1.45-1.62,1.23s-.45-1.14,0-2,1.17-1.45,1.62-1.23S314.84,142.42,314.4,143.32Z" transform="translate(12 79)"/><path d="M305.31,139.68c-.44.9-1.17,1.45-1.62,1.23s-.45-1.13,0-2,1.17-1.45,1.62-1.23S305.76,138.78,305.31,139.68Z" transform="translate(12 79)"/><path d="M316.35,138.63a2.22,2.22,0,0,1,.3-3.82,1.07,1.07,0,0,1,.92-.05c1.08.56,5.91,3.1,5.34,4.17s-1.4,2.68-2.48,2.12A38.47,38.47,0,0,1,316.35,138.63Z" transform="translate(12 79)"/><path d="M304.28,136a2.21,2.21,0,0,1-1.47-3.53,1.08,1.08,0,0,1,.8-.47c1.21,0,6.67.08,6.65,1.29s0,3-1.24,3A36.38,36.38,0,0,1,304.28,136Z" transform="translate(12 79)"/><path class="cls-26" d="M296,161.22s1.57-1.95,5.81-1.95,8.06,4,8.06,4S302.27,168,296,161.22Z" transform="translate(12 79)"/><ellipse class="cls-28" cx="342.22" cy="222.89" rx="6.03" ry="9.93"/><path class="cls-29" d="M336.24,143.89c0,4.84-2.06,8.76-4.6,8.76s-4.61-3.92-4.61-8.76,2.06-8.76,4.61-8.76S336.24,139.06,336.24,143.89Z" transform="translate(12 79)"/><path class="cls-28" d="M335,143.89c0,2.74-1.17,5-2.62,5s-2.61-2.23-2.61-5,1.17-5,2.61-5S335,141.15,335,143.89Z" transform="translate(12 79)"/><path class="cls-28" d="M333.52,151.16q0-.19,0-.42Q333.54,151,333.52,151.16Z" transform="translate(12 79)"/><path class="cls-28" d="M333.63,149.43l0-.53C333.65,149.09,333.63,149.26,333.63,149.43Z" transform="translate(12 79)"/><path class="cls-28" d="M333.61,149.63l0-.2Z" transform="translate(12 79)"/><path class="cls-28" d="M333.51,151.42c0-.08,0-.16,0-.26Z" transform="translate(12 79)"/><path class="cls-28" d="M333.56,150.47l.05-.84C333.59,150,333.58,150.23,333.56,150.47Z" transform="translate(12 79)"/><path class="cls-28" d="M333.55,150.74v-.27C333.56,150.56,333.55,150.65,333.55,150.74Z" transform="translate(12 79)"/><path class="cls-28" d="M333.49,151.73Z" transform="translate(12 79)"/><path class="cls-28" d="M333.49,151.73v0Z" transform="translate(12 79)"/><path class="cls-28" d="M333.49,151.65l0-.23Z" transform="translate(12 79)"/><path class="cls-28" d="M333.51,151.42Z" transform="translate(12 79)"/><path class="cls-28" d="M333.49,151.66h0Z" transform="translate(12 79)"/><path class="cls-28" d="M333.7,148.2c0-.11,0-.22,0-.33Z" transform="translate(12 79)"/><path class="cls-28" d="M334.07,141.78c0-.24,0-.43,0-.56C334.1,141.41,334.09,141.6,334.07,141.78Z" transform="translate(12 79)"/><path class="cls-28" d="M334.06,142v-.19A1.21,1.21,0,0,1,334.06,142Z" transform="translate(12 79)"/><path class="cls-28" d="M334,142.53c0-.2,0-.39,0-.56Z" transform="translate(12 79)"/><path class="cls-28" d="M324.64,118.37a7.15,7.15,0,0,0-1.47-.52h0c-6-1.93-11.08,4.08-11.08,4.08,3.29-2,7.47-1.11,8-1,12,5,10.51,20.84,10.51,20.84l3.55-.71C335,126.34,329.25,120.61,324.64,118.37Z" transform="translate(12 79)"/><path class="cls-28" d="M334.11,141.22a.86.86,0,0,1,0-.16Z" transform="translate(12 79)"/><path class="cls-28" d="M333.66,148.9c0-.22,0-.45,0-.7C333.68,148.44,333.67,148.67,333.66,148.9Z" transform="translate(12 79)"/><path class="cls-28" d="M333.72,147.87c0-.35,0-.72.06-1.12Z" transform="translate(12 79)"/><path class="cls-28" d="M333.78,146.75l0-.39Z" transform="translate(12 79)"/><path class="cls-28" d="M333.81,146.36c0-.53.06-1.1.1-1.71C333.87,145.2,333.84,145.78,333.81,146.36Z" transform="translate(12 79)"/><path class="cls-28" d="M333.91,144.65c0-.39,0-.77.06-1.12C334,143.92,333.93,144.29,333.91,144.65Z" transform="translate(12 79)"/><path class="cls-28" d="M334,143.53c0-.32,0-.65.06-1C334,142.83,334,143.17,334,143.53Z" transform="translate(12 79)"/><path class="cls-30" d="M315.71,119s5.45-2.12,10.9,2.73,6.06,15.15,6.06,15.15v6" transform="translate(12 79)"/><path class="cls-12" d="M334.42,143.89c0,1.55-.66,2.8-1.47,2.8s-1.47-1.25-1.47-2.8.66-2.79,1.47-2.79S334.42,142.35,334.42,143.89Z" transform="translate(12 79)"/><path class="cls-20" d="M272.69,211.38s-12.12-1.22-16.36.6c-8.52,3.65-7.87,9.7-7.27,12.12s3.64,2.42,4.85-.61,6.39-1.23,8.48-.6c6.06,1.82,7.68-.19,13.53,2.33S272.69,211.38,272.69,211.38Z" transform="translate(12 79)"/><path class="cls-5" d="M289.65,232H252.09a1.83,1.83,0,0,1-1.82-1.82h0a1.82,1.82,0,0,1,1.82-1.82h37.56a1.81,1.81,0,0,1,1.82,1.82h0A1.82,1.82,0,0,1,289.65,232Z" transform="translate(12 79)"/><path class="cls-5" d="M256.31,232H210.78l-23.5-48.47h44a2.5,2.5,0,0,1,2.25,1.41Z" transform="translate(12 79)"/><path class="cls-28" d="M250.53,232h-41.7a1.72,1.72,0,0,1-1.55-1l-21.83-45a1.72,1.72,0,0,1,1.55-2.47h41.7a1.73,1.73,0,0,1,1.56,1l21.82,45A1.73,1.73,0,0,1,250.53,232Z" transform="translate(12 79)"/><path class="cls-12" d="M220.76,207.41c.87,2,.37,4.17-1.11,4.81s-3.39-.49-4.25-2.51-.37-4.17,1.11-4.81S219.9,205.39,220.76,207.41Z" transform="translate(12 79)"/><rect class="cls-28" x="247.44" y="127" width="46.65" height="38.25" rx="4.79"/><polygon class="cls-12" points="267.04 139.13 267.04 153.12 274.5 145.66 267.04 139.13"/><rect class="cls-28" x="354.86" y="86.25" width="90.5" height="52.25" rx="4.79" transform="translate(812.22 303.75) rotate(180)"/><polygon class="cls-28" points="423.02 216.56 400.45 239.14 400.45 216.56 423.02 216.56"/><rect class="cls-29" x="375.26" y="173.65" width="28.92" height="4.66"/><rect class="cls-29" x="375.26" y="181.11" width="28.92" height="4.66"/><rect class="cls-29" x="375.26" y="188.57" width="72.77" height="4.66"/><rect class="cls-29" x="375.26" y="196.04" width="72.77" height="4.66"/><rect class="cls-29" x="375.26" y="203.5" width="72.77" height="4.66"/><path class="cls-29" d="M408.93,101.2a5.58,5.58,0,1,1-5.57-5.58A5.57,5.57,0,0,1,408.93,101.2Z" transform="translate(12 79)"/><path class="cls-29" d="M422.48,101.2a5.58,5.58,0,1,1-5.58-5.58A5.58,5.58,0,0,1,422.48,101.2Z" transform="translate(12 79)"/><path class="cls-29" d="M436,101.2a5.58,5.58,0,1,1-5.58-5.58A5.58,5.58,0,0,1,436,101.2Z" transform="translate(12 79)"/><rect class="cls-28" x="98.17" y="161.52" width="104.49" height="38.25" rx="4.79"/><polygon class="cls-28" points="145.57 198.84 168.14 221.41 168.14 198.84 145.57 198.84"/><circle class="cls-29" cx="120.1" cy="179.71" r="9.8"/><circle class="cls-29" cx="149.02" cy="179.71" r="9.8"/><circle class="cls-29" cx="177.94" cy="179.71" r="9.8"/><text class="cls-31" transform="translate(165.77 535.95) scale(1.07 1)">POD<tspan class="cls-32" x="68.7" y="0">C</tspan><tspan class="cls-33" x="89.97" y="0">AST</tspan></text><path class="cls-5" d="M143.55,444.75a4.19,4.19,0,1,1-4.19-3.92A4.06,4.06,0,0,1,143.55,444.75Z" transform="translate(12 79)"/><path class="cls-5" d="M374,444.75a4.19,4.19,0,1,1-4.18-3.92A4.05,4.05,0,0,1,374,444.75Z" transform="translate(12 79)"/></g></svg>